<svg xmlns="http://www.w3.org/2000/svg" version="1.1" viewBox="-5.0 -10.0 110.0 135.0">
 <path style="fill:white;" d="m90.625 27.844c0-1.3828-0.47656-2.7305-1.3359-3.7969-1.1602-1.4492-2.8906-2.2852-4.7461-2.2852h-69.086c-1.8477 0-3.582 0.82812-4.7422 2.2812l-0.003906 0.003906c-0.86328 1.0703-1.3359 2.418-1.3359 3.7969v44.316c0 1.4609 0.52344 2.8672 1.4727 3.9609v0.003906c1.1445 1.332 2.8164 2.1172 4.6055 2.1172h69.086c1.7695 0 3.4492-0.77344 4.6016-2.1133l0.003906-0.003906 0.003907-0.003906 0.003906-0.003906c0.94922-1.0938 1.4727-2.5 1.4727-3.957zm-26.105 23.164 23.523-24.156c0.089843 0.32031 0.14844 0.64844 0.14844 0.99219v44.316c0 0.43359-0.074218 0.85156-0.21875 1.2461zm20.023-26.812c0.64453 0 1.3672 0.18359 2.0039 0.60938 0.019531 0.011718 0.039063 0.027343 0.054687 0.039062l-34.859 35.797c-0.92188 0.95312-2.5625 0.95703-3.4961-0.003906l-34.852-35.797c0.64062-0.44141 1.3984-0.64844 2.0625-0.64844h69.086zm-72.516 49.207c-0.14453-0.39062-0.21875-0.8125-0.21875-1.2461v-44.316c0-0.34375 0.058594-0.67188 0.14844-0.99219l23.523 24.156zm3.4297 2.4023c-0.60156 0-1.293-0.17578-1.8672-0.51953-0.003906 0-0.007813-0.003906-0.007813-0.007812l23.598-22.531 9.3281 9.5781c0.92188 0.95312 2.1641 1.4805 3.4961 1.4805 1.3281 0 2.5703-0.52734 3.4922-1.4766l9.332-9.582 23.598 22.535-0.003906 0.003906c-0.57031 0.34375-1.2656 0.51953-1.8711 0.51953z"/>
</svg>