<svg xmlns="http://www.w3.org/2000/svg" version="1.1" viewBox="-5.0 -10.0 110.0 115.0">
 <path fill="#325565" d="m43.453 69.469c0.61719 0.46094 1.3125 0.69531 2.1406 0.69531 2.4453 0 5.9766-2.0781 11.508-6.6172 1-0.82031 1.1484-2.2969 0.32031-3.2969-0.82031-1-2.2969-1.1484-3.2969-0.32031-3.6641 3.0078-5.8438 4.3906-7.0703 5.0156 0.023437-0.054687 0.039062-0.10937 0.0625-0.15625 0.03125-0.070312 0.054687-0.14844 0.078124-0.21875l8.1953-26.523c0.28906-0.9375-0.039063-1.9609-0.82031-2.5547s-1.8594-0.64063-2.6875-0.10938l-5.0703 3.25c-1.0859 0.70313-1.4062 2.1484-0.70312 3.2422 0.63281 0.98438 1.875 1.3359 2.9141 0.88281l-6.2812 20.328c-0.47656 1.1875-1.6094 4.6406 0.71094 6.3828z"/>
 <path fill="#325565" d="m50 28.586c2.3906 0 4.3359-1.9453 4.3359-4.3359s-1.9453-4.3359-4.3359-4.3359-4.3359 1.9453-4.3359 4.3359 1.9453 4.3359 4.3359 4.3359zm0-4.6875c0.19531 0 0.35156 0.15625 0.35156 0.35156s-0.15625 0.35156-0.35156 0.35156-0.35156-0.15625-0.35156-0.35156 0.15625-0.35156 0.35156-0.35156z"/>
 <path fill="#325565" d="m76.648 4.7578h-53.297c-8.8594 0-16.07 7.2109-16.07 16.07 0 1.2969 1.0469 2.3438 2.3438 2.3438s2.3438-1.0469 2.3438-2.3438c0-6.2734 5.1094-11.383 11.383-11.383h53.297c6.2734 0 11.383 5.1094 11.383 11.383v48.656c0 6.2734-5.1094 11.383-11.383 11.383h-31.117c-0.65625 0-1.2812 0.27344-1.7266 0.75781l-7.0781 7.7266-6.4688-7.6562c-0.44531-0.52344-1.1016-0.82812-1.7891-0.82812h-5.1094c-6.2734 0-11.383-5.1094-11.383-11.383v-20.602c0-1.2969-1.0469-2.3438-2.3438-2.3438-1.2969 0-2.3438 1.0469-2.3438 2.3438v20.594c0 8.8594 7.2109 16.07 16.07 16.07h4.0234l7.4922 8.8594c0.4375 0.51562 1.0703 0.82031 1.7422 0.82812h0.046874c0.65625 0 1.2812-0.27344 1.7266-0.75781l8.1797-8.9297h30.086c8.8594 0 16.07-7.2109 16.07-16.07v-48.648c-0.007812-8.8672-7.2188-16.07-16.078-16.07z"/>
 <path fill="#325565" d="m9.625 40.109c1.2969 0 2.3438-1.0469 2.3438-2.3438v-7.9609c0-1.2969-1.0469-2.3438-2.3438-2.3438s-2.3438 1.0469-2.3438 2.3438v7.9609c0 1.2969 1.0469 2.3438 2.3438 2.3438z"/></svg>