<svg xmlns="http://www.w3.org/2000/svg" version="1.1" viewBox="-5.0 -10.0 110.0 115.0">
 <path fill="#325565" d="m87.547 49.488c2.4102-1.832 3.9688-4.7148 3.9688-7.9688 0-5.5273-4.4961-10.02-10.031-10.02-4.3672 0-8.0859 2.8086-9.4531 6.7148-0.60156-0.31641-1.2227-0.60156-1.8516-0.84375 1.9258-1.6211 3.1562-4.043 3.1562-6.7461 0-4.8633-3.957-8.8086-8.8086-8.8086-4.8516 0-8.8086 3.957-8.8086 8.8086 0 2.707 1.2305 5.1367 3.1562 6.7461-0.80078 0.30469-1.5781 0.66406-2.3359 1.0938-1.8438-1.3281-4.1055-2.125-6.5469-2.125-2.4414 0-4.707 0.78906-6.5469 2.125-0.74609-0.42969-1.5273-0.78906-2.3281-1.0938 1.9258-1.6211 3.1562-4.043 3.1562-6.7461 0-4.8633-3.957-8.8086-8.8086-8.8086-4.8516 0-8.8086 3.957-8.8086 8.8086 0 2.707 1.2305 5.1367 3.1562 6.7578-0.63281 0.24219-1.2539 0.51563-1.8516 0.83203-1.3672-3.9062-5.0859-6.707-9.4531-6.707-5.5273 0-10.02 4.4961-10.02 10.02 0 3.2539 1.5586 6.1367 3.9688 7.9688-7.2461 2.5078-12.457 9.3828-12.457 17.469v9.6953c0 0.85156 0.69531 1.5469 1.5469 1.5469s1.5469-0.69531 1.5469-1.5469v-9.6953c0-8.4961 6.9141-15.41 15.41-15.41 7.3477 0 13.559 5.0859 15.062 12.191-2.8008 3.5586-4.4961 8.043-4.4961 12.914 0 0.85156 0.69531 1.5469 1.5469 1.5469 0.85156 0 1.5469-0.69531 1.5469-1.5469 0-4.2422 1.4961-8.125 3.9688-11.191 0.19922-0.14844 0.36719-0.33594 0.48438-0.55859 3.2734-3.7266 8.0508-6.0938 13.391-6.0938 5.3359 0 10.117 2.3672 13.391 6.0938 0.11719 0.22266 0.27344 0.41016 0.48437 0.55859 2.4727 3.0625 3.9688 6.957 3.9688 11.191 0 0.85156 0.69531 1.5469 1.5469 1.5469 0.85156 0 1.5469-0.69531 1.5469-1.5469 0-4.875-1.6836-9.3594-4.4961-12.914 1.5039-7.1055 7.7148-12.191 15.062-12.191 8.4961 0 15.41 6.9141 15.41 15.41v9.6953c0 0.85156 0.69531 1.5469 1.5469 1.5469s1.5469-0.69531 1.5469-1.5469v-9.6953c0-8.0859-5.2109-14.949-12.453-17.465zm-6.0508-14.902c3.8203 0 6.9375 3.1055 6.9375 6.9375 0 3.832-3.1055 6.9375-6.9375 6.9375-3.832 0-6.9375-3.1055-6.9375-6.9375 0-3.832 3.1055-6.9375 6.9375-6.9375zm-16.961-9.6875c3.1562 0 5.7266 2.5703 5.7266 5.7266s-2.5703 5.7266-5.7266 5.7266-5.7266-2.5703-5.7266-5.7266 2.5703-5.7266 5.7266-5.7266zm-9.3555 16.402c0.125 0.16797 0.27344 0.29297 0.44141 0.39844 1.5586 1.4844 2.5273 3.5703 2.5273 5.8828 0 4.4961-3.6523 8.1484-8.1484 8.1484s-8.1484-3.6523-8.1484-8.1484c0-4.4961 3.6523-8.1484 8.1484-8.1484 1.9688 0 3.7695 0.69531 5.1797 1.8633zm-25.434-10.684c0-3.1562 2.5703-5.7266 5.7266-5.7266s5.7266 2.5703 5.7266 5.7266-2.5703 5.7266-5.7266 5.7266-5.7266-2.5703-5.7266-5.7266zm-18.176 10.902c0-3.8203 3.1055-6.9375 6.9375-6.9375 3.832 0 6.9375 3.1055 6.9375 6.9375s-3.1055 6.9375-6.9375 6.9375c-3.832 0-6.9375-3.1055-6.9375-6.9375zm24.48 19.57c-1.8203-5.5156-6.0938-9.7578-11.473-11.609 2.3984-1.832 3.9492-4.7148 3.9492-7.957v-0.074219c2.0742-1.3164 4.4531-2.0117 6.9375-2.0117 1.9805 0 3.8945 0.44141 5.6523 1.293-1.4648 1.8945-2.3477 4.2734-2.3477 6.8516 0 3.7891 1.8945 7.1367 4.7773 9.1797-2.8008 0.91406-5.3359 2.4102-7.4844 4.3359zm27.898 0c-2.1484-1.9258-4.6836-3.4219-7.4844-4.3359 2.8828-2.0312 4.7773-5.3906 4.7773-9.1797 0-2.5781-0.88281-4.957-2.3477-6.8516 1.7461-0.85156 3.6719-1.293 5.6523-1.293 2.4727 0 4.8633 0.70703 6.9375 2.0117v0.074219c0 3.2422 1.5586 6.125 3.9492 7.957-5.3789 1.8516-9.6523 6.1055-11.473 11.609z"/>
</svg>